<svg width="32" height="32" viewBox="0 0 32 32" fill="none" xmlns="http://www.w3.org/2000/svg">
  <path d="M16 0C7.163 0 0 7.163 0 16s7.163 16 16 16 16-7.163 16-16S24.837 0 16 0z" fill="#000"/>
  <path d="M22.967 8.267a1.067 1.067 0 00-1.067 1.066v13.334a1.067 1.067 0 002.133 0V9.333a1.067 1.067 0 00-1.066-1.066z" fill="#0066FF"/>
  <path d="M16 8.267a1.067 1.067 0 00-1.067 1.066v13.334a1.067 1.067 0 002.134 0V9.333A1.067 1.067 0 0016 8.267z" fill="#00BBFF"/>
  <path d="M9.033 8.267a1.067 1.067 0 00-1.066 1.066v13.334a1.067 1.067 0 002.133 0V9.333a1.067 1.067 0 00-1.067-1.066z" fill="#00EEFF"/>
</svg>