<?xml version="1.0" encoding="UTF-8" standalone="no"?>
<svg width="390" height="844" viewBox="0 0 390 844" fill="none" xmlns="http://www.w3.org/2000/svg">
  <!-- Phone frame -->
  <rect width="390" height="844" rx="40" fill="#F5F7FA"/>
  
  <!-- Status bar -->
  <rect width="390" height="44" fill="#FFFFFF"/>
  <text x="25" y="27" font-family="Arial" font-size="14" fill="#000000">9:41</text>
  <text x="345" y="27" font-family="Arial" font-size="14" fill="#000000">100%</text>
  
  <!-- App header -->
  <rect x="0" y="44" width="390" height="60" fill="#FFFFFF"/>
  <text x="20" y="82" font-family="Arial" font-weight="bold" font-size="20" fill="#333333">AI Assistant</text>
  
  <!-- Tabs -->
  <rect x="0" y="104" width="390" height="60" fill="#FFFFFF"/>
  <rect x="0" y="104" width="195" height="60" fill="#FFFFFF"/>
  <text x="97" y="138" font-family="Arial" font-weight="bold" font-size="14" fill="#6366F1" text-anchor="middle">Suggestions</text>
  <line x1="0" y1="164" x2="195" y2="164" stroke="#6366F1" stroke-width="2"/>
  
  <rect x="195" y="104" width="195" height="60" fill="#FFFFFF"/>
  <text x="292" y="138" font-family="Arial" font-size="14" fill="#6B7280" text-anchor="middle">Delegate Tasks</text>
  
  <!-- Suggestion cards -->
  <rect x="20" y="184" width="350" height="180" rx="12" fill="#FFFFFF" stroke="#E5E7EB" stroke-width="1"/>
  <text x="40" y="214" font-family="Arial" font-weight="bold" font-size="18" fill="#111827">Focus on High-Priority Tasks</text>
  <text x="40" y="242" font-family="Arial" font-size="14" fill="#4B5563">You have 3 high-priority tasks today. Complete these first to maximize productivity.</text>
  
  <rect x="40" y="264" width="310" height="1" fill="#E5E7EB"/>
  
  <text x="60" y="294" font-family="Arial" font-size="15" fill="#111827">Complete project presentation</text>
  <text x="60" y="316" font-family="Arial" font-size="13" fill="#6B7280">60 min</text>
  
  <text x="60" y="344" font-family="Arial" font-size="15" fill="#111827">Schedule team meeting</text>
  <text x="60" y="366" font-family="Arial" font-size="13" fill="#6B7280">15 min</text>
  
  <rect x="20" y="384" width="350" height="180" rx="12" fill="#FFFFFF" stroke="#E5E7EB" stroke-width="1"/>
  <text x="40" y="414" font-family="Arial" font-weight="bold" font-size="18" fill="#111827">Optimize Your Schedule</text>
  <text x="40" y="442" font-family="Arial" font-size="14" fill="#4B5563">Group similar tasks together to reduce context switching and improve focus.</text>
  
  <rect x="40" y="464" width="310" height="1" fill="#E5E7EB"/>
  
  <text x="60" y="494" font-family="Arial" font-size="15" fill="#111827">Review email responses (30 min)</text>
  <text x="60" y="516" font-family="Arial" font-size="13" fill="#6B7280">10:00 AM - 10:30 AM</text>
  
  <text x="60" y="544" font-family="Arial" font-size="15" fill="#111827">Take a short break (15 min)</text>
  <text x="60" y="566" font-family="Arial" font-size="13" fill="#6B7280">After completing major tasks</text>
  
  <!-- Bottom navigation -->
  <rect x="0" y="784" width="390" height="60" fill="#FFFFFF"/>
  <line x1="0" y1="784" x2="390" y2="784" stroke="#E5E7EB"/>
  
  <!-- Nav items -->
  <circle cx="50" cy="814" r="4" fill="#6B7280"/>
  <text x="50" y="834" font-family="Arial" font-size="10" fill="#6B7280" text-anchor="middle">Tasks</text>
  
  <circle cx="130" cy="814" r="4" fill="#6B7280"/>
  <text x="130" y="834" font-family="Arial" font-size="10" fill="#6B7280" text-anchor="middle">Calendar</text>
  
  <circle cx="210" cy="814" r="4" fill="#6B7280"/>
  <text x="210" y="834" font-family="Arial" font-size="10" fill="#6B7280" text-anchor="middle">Messages</text>
  
  <circle cx="290" cy="814" r="4" fill="#6366F1"/>
  <text x="290" y="834" font-family="Arial" font-size="10" fill="#6366F1" text-anchor="middle">AI Assistant</text>
  
  <circle cx="360" cy="814" r="4" fill="#6B7280"/>
  <text x="360" y="834" font-family="Arial" font-size="10" fill="#6B7280" text-anchor="middle">Profile</text>
</svg>