<?xml version="1.0" encoding="UTF-8" standalone="no"?>
<svg width="390" height="844" viewBox="0 0 390 844" fill="none" xmlns="http://www.w3.org/2000/svg">
  <!-- Phone frame -->
  <rect width="390" height="844" rx="40" fill="#F5F7FA"/>
  
  <!-- Status bar -->
  <rect width="390" height="44" fill="#FFFFFF"/>
  <text x="25" y="27" font-family="Arial" font-size="14" fill="#000000">9:41</text>
  <text x="345" y="27" font-family="Arial" font-size="14" fill="#000000">100%</text>
  
  <!-- App header -->
  <rect x="0" y="44" width="390" height="60" fill="#FFFFFF"/>
  <text x="20" y="82" font-family="Arial" font-weight="bold" font-size="20" fill="#333333">Today's Tasks</text>
  
  <!-- Filter tabs -->
  <rect x="0" y="104" width="390" height="60" fill="#FFFFFF"/>
  <rect x="20" y="118" width="80" height="32" rx="16" fill="#6366F1"/>
  <text x="60" y="138" font-family="Arial" font-weight="bold" font-size="14" fill="#FFFFFF" text-anchor="middle">Today's</text>
  
  <rect x="110" y="118" width="80" height="32" rx="16" fill="#FFFFFF"/>
  <text x="150" y="138" font-family="Arial" font-size="14" fill="#6B7280" text-anchor="middle">Upcoming</text>
  
  <rect x="200" y="118" width="80" height="32" rx="16" fill="#FFFFFF"/>
  <text x="240" y="138" font-family="Arial" font-size="14" fill="#6B7280" text-anchor="middle">Completed</text>
  
  <rect x="290" y="118" width="80" height="32" rx="16" fill="#FFFFFF"/>
  <text x="330" y="138" font-family="Arial" font-size="14" fill="#6B7280" text-anchor="middle">All</text>
  
  <!-- Task items -->
  <rect x="20" y="184" width="350" height="120" rx="12" fill="#FFFFFF" stroke="#E5E7EB" stroke-width="1"/>
  <circle cx="45" cy="214" r="15" stroke="#6366F1" stroke-width="2" fill="none"/>
  <text x="80" y="214" font-family="Arial" font-weight="bold" font-size="16" fill="#111827">Complete project presentation</text>
  <text x="80" y="236" font-family="Arial" font-size="14" fill="#6B7280">Due: Apr 15, 2025</text>
  <rect x="80" y="254" width="60" height="24" rx="4" fill="#EF4444"/>
  <text x="110" y="270" font-family="Arial" font-weight="bold" font-size="12" fill="#FFFFFF" text-anchor="middle">high</text>
  <rect x="150" y="254" width="60" height="24" rx="4" fill="#E5E7EB"/>
  <text x="180" y="270" font-family="Arial" font-size="12" fill="#4B5563" text-anchor="middle">Work</text>
  <text x="230" y="270" font-family="Arial" font-size="12" fill="#6B7280">60 min</text>
  
  <rect x="20" y="324" width="350" height="120" rx="12" fill="#FFFFFF" stroke="#E5E7EB" stroke-width="1"/>
  <circle cx="45" cy="354" r="15" stroke="#6366F1" stroke-width="2" fill="none"/>
  <text x="80" y="354" font-family="Arial" font-weight="bold" font-size="16" fill="#111827">Schedule team meeting</text>
  <text x="80" y="376" font-family="Arial" font-size="14" fill="#6B7280">Due: Apr 14, 2025</text>
  <rect x="80" y="394" width="60" height="24" rx="4" fill="#F59E0B"/>
  <text x="110" y="410" font-family="Arial" font-weight="bold" font-size="12" fill="#FFFFFF" text-anchor="middle">medium</text>
  <rect x="150" y="394" width="60" height="24" rx="4" fill="#E5E7EB"/>
  <text x="180" y="410" font-family="Arial" font-size="12" fill="#4B5563" text-anchor="middle">Work</text>
  <text x="230" y="410" font-family="Arial" font-size="12" fill="#6B7280">15 min</text>
  
  <rect x="20" y="464" width="350" height="120" rx="12" fill="#FFFFFF" stroke="#E5E7EB" stroke-width="1"/>
  <circle cx="45" cy="494" r="15" fill="#6366F1"/>
  <path d="M38 494L43 500L53 488" stroke="white" stroke-width="2" stroke-linecap="round" stroke-linejoin="round"/>
  <text x="80" y="494" font-family="Arial" font-weight="bold" font-size="16" fill="#9CA3AF" text-decoration="line-through">Buy groceries</text>
  <text x="80" y="516" font-family="Arial" font-size="14" fill="#6B7280">Completed: 2:30 PM</text>
  <rect x="80" y="534" width="60" height="24" rx="4" fill="#10B981"/>
  <text x="110" y="550" font-family="Arial" font-weight="bold" font-size="12" fill="#FFFFFF" text-anchor="middle">low</text>
  <rect x="150" y="534" width="60" height="24" rx="4" fill="#E5E7EB"/>
  <text x="180" y="550" font-family="Arial" font-size="12" fill="#4B5563" text-anchor="middle">Personal</text>
  <text x="230" y="550" font-family="Arial" font-size="12" fill="#6B7280">30 min</text>
  
  <!-- Add task button -->
  <circle cx="330" cy="740" r="30" fill="#6366F1"/>
  <text x="330" y="747" font-family="Arial" font-weight="bold" font-size="30" fill="#FFFFFF" text-anchor="middle">+</text>
  
  <!-- Bottom navigation -->
  <rect x="0" y="784" width="390" height="60" fill="#FFFFFF"/>
  <line x1="0" y1="784" x2="390" y2="784" stroke="#E5E7EB"/>
  
  <!-- Nav items -->
  <circle cx="50" cy="814" r="4" fill="#6366F1"/>
  <text x="50" y="834" font-family="Arial" font-size="10" fill="#6366F1" text-anchor="middle">Tasks</text>
  
  <circle cx="130" cy="814" r="4" fill="#6B7280"/>
  <text x="130" y="834" font-family="Arial" font-size="10" fill="#6B7280" text-anchor="middle">Calendar</text>
  
  <circle cx="210" cy="814" r="4" fill="#6B7280"/>
  <text x="210" y="834" font-family="Arial" font-size="10" fill="#6B7280" text-anchor="middle">Messages</text>
  
  <circle cx="290" cy="814" r="4" fill="#6B7280"/>
  <text x="290" y="834" font-family="Arial" font-size="10" fill="#6B7280" text-anchor="middle">AI Assistant</text>
  
  <circle cx="360" cy="814" r="4" fill="#6B7280"/>
  <text x="360" y="834" font-family="Arial" font-size="10" fill="#6B7280" text-anchor="middle">Profile</text>
</svg>